<mxfile host="app.diagrams.net" modified="2023-07-24T19:58:31.110Z" agent="Mozilla/5.0 (Windows NT 10.0; Win64; x64; rv:109.0) Gecko/20100101 Firefox/115.0" etag="mNbgGIpSL2KbYEEwWlo1" version="21.3.2" type="google" pages="3">
  <diagram id="C5RBs43oDa-KdzZeNtuy" name="Gestión de usuarios">
    <mxGraphModel grid="1" page="1" gridSize="10" guides="1" tooltips="1" connect="1" arrows="1" fold="1" pageScale="1" pageWidth="827" pageHeight="1169" math="0" shadow="0">
      <root>
        <mxCell id="WIyWlLk6GJQsqaUBKTNV-0" />
        <mxCell id="WIyWlLk6GJQsqaUBKTNV-1" parent="WIyWlLk6GJQsqaUBKTNV-0" />
        <mxCell id="nGMN8r1EgLCpATn-sk5n-134" style="edgeStyle=orthogonalEdgeStyle;rounded=0;orthogonalLoop=1;jettySize=auto;html=1;entryX=0.5;entryY=0;entryDx=0;entryDy=0;entryPerimeter=0;" edge="1" parent="WIyWlLk6GJQsqaUBKTNV-1" source="nGMN8r1EgLCpATn-sk5n-135" target="nGMN8r1EgLCpATn-sk5n-138">
          <mxGeometry relative="1" as="geometry" />
        </mxCell>
        <mxCell id="nGMN8r1EgLCpATn-sk5n-135" value="Inicio" style="strokeWidth=2;html=1;shape=mxgraph.flowchart.start_1;whiteSpace=wrap;" vertex="1" parent="WIyWlLk6GJQsqaUBKTNV-1">
          <mxGeometry x="75" y="85" width="60" height="30" as="geometry" />
        </mxCell>
        <mxCell id="nGMN8r1EgLCpATn-sk5n-136" style="edgeStyle=orthogonalEdgeStyle;rounded=0;orthogonalLoop=1;jettySize=auto;html=1;entryX=0.5;entryY=0;entryDx=0;entryDy=0;entryPerimeter=0;" edge="1" parent="WIyWlLk6GJQsqaUBKTNV-1" source="nGMN8r1EgLCpATn-sk5n-138" target="nGMN8r1EgLCpATn-sk5n-141">
          <mxGeometry relative="1" as="geometry" />
        </mxCell>
        <mxCell id="nGMN8r1EgLCpATn-sk5n-137" style="edgeStyle=orthogonalEdgeStyle;rounded=0;orthogonalLoop=1;jettySize=auto;html=1;exitX=1;exitY=0.5;exitDx=0;exitDy=0;exitPerimeter=0;entryX=0;entryY=0.5;entryDx=0;entryDy=0;" edge="1" parent="WIyWlLk6GJQsqaUBKTNV-1" source="nGMN8r1EgLCpATn-sk5n-138" target="nGMN8r1EgLCpATn-sk5n-153">
          <mxGeometry relative="1" as="geometry" />
        </mxCell>
        <mxCell id="nGMN8r1EgLCpATn-sk5n-138" value="¿Está registrado?&lt;br&gt;" style="strokeWidth=2;html=1;shape=mxgraph.flowchart.decision;whiteSpace=wrap;" vertex="1" parent="WIyWlLk6GJQsqaUBKTNV-1">
          <mxGeometry x="60" y="160" width="90" height="80" as="geometry" />
        </mxCell>
        <mxCell id="nGMN8r1EgLCpATn-sk5n-139" value="Si" style="text;html=1;strokeColor=none;fillColor=none;align=center;verticalAlign=middle;whiteSpace=wrap;rounded=0;" vertex="1" parent="WIyWlLk6GJQsqaUBKTNV-1">
          <mxGeometry x="103" y="233" width="30" height="20" as="geometry" />
        </mxCell>
        <mxCell id="nGMN8r1EgLCpATn-sk5n-140" style="edgeStyle=orthogonalEdgeStyle;rounded=0;orthogonalLoop=1;jettySize=auto;html=1;entryX=0.5;entryY=0;entryDx=0;entryDy=0;entryPerimeter=0;" edge="1" parent="WIyWlLk6GJQsqaUBKTNV-1" source="nGMN8r1EgLCpATn-sk5n-141" target="nGMN8r1EgLCpATn-sk5n-143">
          <mxGeometry relative="1" as="geometry" />
        </mxCell>
        <mxCell id="nGMN8r1EgLCpATn-sk5n-141" value="Ingresar credenciales (documento y contraseña)" style="strokeWidth=2;html=1;shape=mxgraph.flowchart.stored_data;whiteSpace=wrap;" vertex="1" parent="WIyWlLk6GJQsqaUBKTNV-1">
          <mxGeometry x="55" y="270" width="100" height="60" as="geometry" />
        </mxCell>
        <mxCell id="nGMN8r1EgLCpATn-sk5n-142" style="edgeStyle=orthogonalEdgeStyle;rounded=0;orthogonalLoop=1;jettySize=auto;html=1;entryX=0.5;entryY=0;entryDx=0;entryDy=0;" edge="1" parent="WIyWlLk6GJQsqaUBKTNV-1" source="nGMN8r1EgLCpATn-sk5n-143" target="nGMN8r1EgLCpATn-sk5n-150">
          <mxGeometry relative="1" as="geometry" />
        </mxCell>
        <mxCell id="nGMN8r1EgLCpATn-sk5n-143" value="&lt;br&gt;Database" style="strokeWidth=2;html=1;shape=mxgraph.flowchart.database;whiteSpace=wrap;" vertex="1" parent="WIyWlLk6GJQsqaUBKTNV-1">
          <mxGeometry x="75" y="370" width="60" height="60" as="geometry" />
        </mxCell>
        <mxCell id="nGMN8r1EgLCpATn-sk5n-144" style="edgeStyle=orthogonalEdgeStyle;rounded=0;orthogonalLoop=1;jettySize=auto;html=1;exitX=1;exitY=0.5;exitDx=0;exitDy=0;curved=1;entryX=0;entryY=0.5;entryDx=0;entryDy=0;entryPerimeter=0;" edge="1" parent="WIyWlLk6GJQsqaUBKTNV-1" source="nGMN8r1EgLCpATn-sk5n-150" target="nGMN8r1EgLCpATn-sk5n-198">
          <mxGeometry relative="1" as="geometry">
            <mxPoint x="240" y="350" as="targetPoint" />
            <Array as="points">
              <mxPoint x="170" y="515" />
              <mxPoint x="170" y="335" />
            </Array>
          </mxGeometry>
        </mxCell>
        <mxCell id="nGMN8r1EgLCpATn-sk5n-145" style="edgeStyle=orthogonalEdgeStyle;rounded=0;orthogonalLoop=1;jettySize=auto;html=1;exitX=1;exitY=0.5;exitDx=0;exitDy=0;entryX=0;entryY=0.5;entryDx=0;entryDy=0;curved=1;" edge="1" parent="WIyWlLk6GJQsqaUBKTNV-1" source="nGMN8r1EgLCpATn-sk5n-150" target="nGMN8r1EgLCpATn-sk5n-168">
          <mxGeometry relative="1" as="geometry">
            <Array as="points">
              <mxPoint x="170" y="515" />
              <mxPoint x="170" y="770" />
              <mxPoint x="244" y="770" />
            </Array>
          </mxGeometry>
        </mxCell>
        <mxCell id="nGMN8r1EgLCpATn-sk5n-146" style="edgeStyle=orthogonalEdgeStyle;rounded=0;orthogonalLoop=1;jettySize=auto;html=1;exitX=1;exitY=0.5;exitDx=0;exitDy=0;entryX=0;entryY=0.5;entryDx=0;entryDy=0;curved=1;" edge="1" parent="WIyWlLk6GJQsqaUBKTNV-1" source="nGMN8r1EgLCpATn-sk5n-150" target="nGMN8r1EgLCpATn-sk5n-166">
          <mxGeometry relative="1" as="geometry">
            <Array as="points">
              <mxPoint x="180" y="515" />
              <mxPoint x="180" y="690" />
            </Array>
          </mxGeometry>
        </mxCell>
        <mxCell id="nGMN8r1EgLCpATn-sk5n-149" style="edgeStyle=orthogonalEdgeStyle;rounded=0;orthogonalLoop=1;jettySize=auto;html=1;exitX=1;exitY=0.5;exitDx=0;exitDy=0;entryX=0;entryY=0.5;entryDx=0;entryDy=0;curved=1;" edge="1" parent="WIyWlLk6GJQsqaUBKTNV-1" source="nGMN8r1EgLCpATn-sk5n-150" target="nGMN8r1EgLCpATn-sk5n-164">
          <mxGeometry relative="1" as="geometry" />
        </mxCell>
        <mxCell id="nGMN8r1EgLCpATn-sk5n-150" value="Ingresar en el sistema" style="rounded=1;whiteSpace=wrap;html=1;absoluteArcSize=1;arcSize=14;strokeWidth=2;" vertex="1" parent="WIyWlLk6GJQsqaUBKTNV-1">
          <mxGeometry x="62.5" y="490" width="85" height="50" as="geometry" />
        </mxCell>
        <mxCell id="nGMN8r1EgLCpATn-sk5n-151" value="No" style="text;html=1;strokeColor=none;fillColor=none;align=center;verticalAlign=middle;whiteSpace=wrap;rounded=0;" vertex="1" parent="WIyWlLk6GJQsqaUBKTNV-1">
          <mxGeometry x="270" y="181" width="30" height="20" as="geometry" />
        </mxCell>
        <mxCell id="nGMN8r1EgLCpATn-sk5n-152" style="edgeStyle=orthogonalEdgeStyle;rounded=0;orthogonalLoop=1;jettySize=auto;html=1;entryX=0.467;entryY=1;entryDx=0;entryDy=0;entryPerimeter=0;" edge="1" parent="WIyWlLk6GJQsqaUBKTNV-1" source="nGMN8r1EgLCpATn-sk5n-153" target="nGMN8r1EgLCpATn-sk5n-155">
          <mxGeometry relative="1" as="geometry" />
        </mxCell>
        <mxCell id="nGMN8r1EgLCpATn-sk5n-153" value="Registrar en el sistema" style="rounded=1;whiteSpace=wrap;html=1;absoluteArcSize=1;arcSize=14;strokeWidth=2;" vertex="1" parent="WIyWlLk6GJQsqaUBKTNV-1">
          <mxGeometry x="420" y="175" width="96" height="50" as="geometry" />
        </mxCell>
        <mxCell id="nGMN8r1EgLCpATn-sk5n-154" style="edgeStyle=orthogonalEdgeStyle;rounded=0;orthogonalLoop=1;jettySize=auto;html=1;" edge="1" parent="WIyWlLk6GJQsqaUBKTNV-1" source="nGMN8r1EgLCpATn-sk5n-155" target="nGMN8r1EgLCpATn-sk5n-157">
          <mxGeometry relative="1" as="geometry">
            <mxPoint x="300" y="100" as="targetPoint" />
          </mxGeometry>
        </mxCell>
        <mxCell id="nGMN8r1EgLCpATn-sk5n-155" value="Datos ingresados (Nombre, apellido, tipo de documento, número de documento, correo institucional, correo_personal, numero de celular, numero fijo, contraseña)&amp;nbsp;" style="strokeWidth=2;html=1;shape=mxgraph.flowchart.stored_data;whiteSpace=wrap;spacing=16;" vertex="1" parent="WIyWlLk6GJQsqaUBKTNV-1">
          <mxGeometry x="370" y="50" width="210" height="100" as="geometry" />
        </mxCell>
        <mxCell id="nGMN8r1EgLCpATn-sk5n-156" style="edgeStyle=orthogonalEdgeStyle;rounded=0;orthogonalLoop=1;jettySize=auto;html=1;entryX=0.623;entryY=0.111;entryDx=0;entryDy=0;entryPerimeter=0;" edge="1" parent="WIyWlLk6GJQsqaUBKTNV-1" source="nGMN8r1EgLCpATn-sk5n-157" target="nGMN8r1EgLCpATn-sk5n-138">
          <mxGeometry relative="1" as="geometry">
            <mxPoint x="270" y="130" as="sourcePoint" />
            <Array as="points">
              <mxPoint x="270" y="169" />
            </Array>
          </mxGeometry>
        </mxCell>
        <mxCell id="nGMN8r1EgLCpATn-sk5n-157" value="&lt;br&gt;Database" style="strokeWidth=2;html=1;shape=mxgraph.flowchart.database;whiteSpace=wrap;" vertex="1" parent="WIyWlLk6GJQsqaUBKTNV-1">
          <mxGeometry x="240" y="70" width="60" height="60" as="geometry" />
        </mxCell>
        <mxCell id="nGMN8r1EgLCpATn-sk5n-163" style="edgeStyle=orthogonalEdgeStyle;rounded=0;orthogonalLoop=1;jettySize=auto;html=1;entryX=0;entryY=0.5;entryDx=0;entryDy=0;entryPerimeter=0;" edge="1" parent="WIyWlLk6GJQsqaUBKTNV-1" source="nGMN8r1EgLCpATn-sk5n-164" target="nGMN8r1EgLCpATn-sk5n-170">
          <mxGeometry relative="1" as="geometry" />
        </mxCell>
        <mxCell id="nGMN8r1EgLCpATn-sk5n-164" value="Modificar contraseña" style="rounded=1;whiteSpace=wrap;html=1;absoluteArcSize=1;arcSize=14;strokeWidth=2;" vertex="1" parent="WIyWlLk6GJQsqaUBKTNV-1">
          <mxGeometry x="243.75" y="585" width="95" height="50" as="geometry" />
        </mxCell>
        <mxCell id="nGMN8r1EgLCpATn-sk5n-165" style="edgeStyle=orthogonalEdgeStyle;rounded=0;orthogonalLoop=1;jettySize=auto;html=1;" edge="1" parent="WIyWlLk6GJQsqaUBKTNV-1" source="nGMN8r1EgLCpATn-sk5n-166" target="nGMN8r1EgLCpATn-sk5n-172">
          <mxGeometry relative="1" as="geometry" />
        </mxCell>
        <mxCell id="nGMN8r1EgLCpATn-sk5n-166" value="Modificar información" style="rounded=1;whiteSpace=wrap;html=1;absoluteArcSize=1;arcSize=14;strokeWidth=2;" vertex="1" parent="WIyWlLk6GJQsqaUBKTNV-1">
          <mxGeometry x="243.75" y="665" width="95" height="50" as="geometry" />
        </mxCell>
        <mxCell id="nGMN8r1EgLCpATn-sk5n-167" style="edgeStyle=orthogonalEdgeStyle;rounded=0;orthogonalLoop=1;jettySize=auto;html=1;entryX=0;entryY=0.5;entryDx=0;entryDy=0;entryPerimeter=0;" edge="1" parent="WIyWlLk6GJQsqaUBKTNV-1" source="nGMN8r1EgLCpATn-sk5n-168" target="nGMN8r1EgLCpATn-sk5n-174">
          <mxGeometry relative="1" as="geometry" />
        </mxCell>
        <mxCell id="nGMN8r1EgLCpATn-sk5n-168" value="Recuperar contraseña" style="rounded=1;whiteSpace=wrap;html=1;absoluteArcSize=1;arcSize=14;strokeWidth=2;" vertex="1" parent="WIyWlLk6GJQsqaUBKTNV-1">
          <mxGeometry x="243.75" y="745.5" width="95" height="50" as="geometry" />
        </mxCell>
        <mxCell id="nGMN8r1EgLCpATn-sk5n-169" style="edgeStyle=orthogonalEdgeStyle;rounded=0;orthogonalLoop=1;jettySize=auto;html=1;exitX=0.93;exitY=0.5;exitDx=0;exitDy=0;exitPerimeter=0;" edge="1" parent="WIyWlLk6GJQsqaUBKTNV-1" source="nGMN8r1EgLCpATn-sk5n-170" target="nGMN8r1EgLCpATn-sk5n-176">
          <mxGeometry relative="1" as="geometry" />
        </mxCell>
        <mxCell id="nGMN8r1EgLCpATn-sk5n-170" value="Ingresar datos (contraseña actual, nueva contraseña, confirmar contraseña)" style="strokeWidth=2;html=1;shape=mxgraph.flowchart.stored_data;whiteSpace=wrap;spacingLeft=0;spacingRight=5;spacing=10;" vertex="1" parent="WIyWlLk6GJQsqaUBKTNV-1">
          <mxGeometry x="361.75" y="575" width="180" height="70" as="geometry" />
        </mxCell>
        <mxCell id="nGMN8r1EgLCpATn-sk5n-171" style="edgeStyle=orthogonalEdgeStyle;rounded=0;orthogonalLoop=1;jettySize=auto;html=1;exitX=0.93;exitY=0.5;exitDx=0;exitDy=0;exitPerimeter=0;" edge="1" parent="WIyWlLk6GJQsqaUBKTNV-1" source="nGMN8r1EgLCpATn-sk5n-172" target="nGMN8r1EgLCpATn-sk5n-175">
          <mxGeometry relative="1" as="geometry" />
        </mxCell>
        <mxCell id="nGMN8r1EgLCpATn-sk5n-172" value="Modificar datos (Nombre, apellido, tipo de documento, número de documento, correo institucional, correo_personal, numero de celular, numero fijo)" style="strokeWidth=2;html=1;shape=mxgraph.flowchart.stored_data;whiteSpace=wrap;spacingLeft=0;spacingRight=5;spacing=10;" vertex="1" parent="WIyWlLk6GJQsqaUBKTNV-1">
          <mxGeometry x="359.75" y="655" width="180" height="95" as="geometry" />
        </mxCell>
        <mxCell id="nGMN8r1EgLCpATn-sk5n-173" style="edgeStyle=orthogonalEdgeStyle;rounded=0;orthogonalLoop=1;jettySize=auto;html=1;entryX=0.5;entryY=0;entryDx=0;entryDy=0;entryPerimeter=0;" edge="1" parent="WIyWlLk6GJQsqaUBKTNV-1" source="nGMN8r1EgLCpATn-sk5n-174" target="nGMN8r1EgLCpATn-sk5n-179">
          <mxGeometry relative="1" as="geometry" />
        </mxCell>
        <mxCell id="nGMN8r1EgLCpATn-sk5n-174" value="Ingresar datos (correo de recuperación) Enviar código de recuperación con 15 minutos de vencimiento" style="strokeWidth=2;html=1;shape=mxgraph.flowchart.stored_data;whiteSpace=wrap;spacingRight=5;spacing=10;" vertex="1" parent="WIyWlLk6GJQsqaUBKTNV-1">
          <mxGeometry x="363.75" y="765" width="180" height="70" as="geometry" />
        </mxCell>
        <mxCell id="nGMN8r1EgLCpATn-sk5n-175" value="&lt;br&gt;Database" style="strokeWidth=2;html=1;shape=mxgraph.flowchart.database;whiteSpace=wrap;" vertex="1" parent="WIyWlLk6GJQsqaUBKTNV-1">
          <mxGeometry x="603.75" y="660" width="60" height="60" as="geometry" />
        </mxCell>
        <mxCell id="nGMN8r1EgLCpATn-sk5n-176" value="&lt;br&gt;Database" style="strokeWidth=2;html=1;shape=mxgraph.flowchart.database;whiteSpace=wrap;" vertex="1" parent="WIyWlLk6GJQsqaUBKTNV-1">
          <mxGeometry x="603.75" y="580" width="60" height="60" as="geometry" />
        </mxCell>
        <mxCell id="nGMN8r1EgLCpATn-sk5n-177" style="edgeStyle=orthogonalEdgeStyle;rounded=0;orthogonalLoop=1;jettySize=auto;html=1;entryX=0.04;entryY=0.916;entryDx=0;entryDy=0;entryPerimeter=0;" edge="1" parent="WIyWlLk6GJQsqaUBKTNV-1" source="nGMN8r1EgLCpATn-sk5n-179" target="nGMN8r1EgLCpATn-sk5n-174">
          <mxGeometry relative="1" as="geometry">
            <Array as="points">
              <mxPoint x="367" y="870" />
              <mxPoint x="367" y="829" />
            </Array>
          </mxGeometry>
        </mxCell>
        <mxCell id="nGMN8r1EgLCpATn-sk5n-178" style="edgeStyle=orthogonalEdgeStyle;rounded=0;orthogonalLoop=1;jettySize=auto;html=1;exitX=1;exitY=0.5;exitDx=0;exitDy=0;exitPerimeter=0;" edge="1" parent="WIyWlLk6GJQsqaUBKTNV-1" source="nGMN8r1EgLCpATn-sk5n-179" target="nGMN8r1EgLCpATn-sk5n-183">
          <mxGeometry relative="1" as="geometry" />
        </mxCell>
        <mxCell id="nGMN8r1EgLCpATn-sk5n-179" value="&lt;font style=&quot;font-size: 10px;&quot;&gt;¿El usuario accedió antes de la expiración del link?&lt;/font&gt;" style="strokeWidth=2;html=1;shape=mxgraph.flowchart.decision;whiteSpace=wrap;spacingTop=0;spacingBottom=0;spacing=2;spacingRight=10;spacingLeft=10;" vertex="1" parent="WIyWlLk6GJQsqaUBKTNV-1">
          <mxGeometry x="387.25" y="860" width="125" height="70" as="geometry" />
        </mxCell>
        <mxCell id="nGMN8r1EgLCpATn-sk5n-180" value="No" style="text;html=1;strokeColor=none;fillColor=none;align=center;verticalAlign=middle;whiteSpace=wrap;rounded=0;" vertex="1" parent="WIyWlLk6GJQsqaUBKTNV-1">
          <mxGeometry x="380" y="845" width="28.75" height="25" as="geometry" />
        </mxCell>
        <mxCell id="nGMN8r1EgLCpATn-sk5n-181" value="Si" style="text;html=1;strokeColor=none;fillColor=none;align=center;verticalAlign=middle;whiteSpace=wrap;rounded=0;" vertex="1" parent="WIyWlLk6GJQsqaUBKTNV-1">
          <mxGeometry x="496.75" y="845" width="30" height="20" as="geometry" />
        </mxCell>
        <mxCell id="nGMN8r1EgLCpATn-sk5n-182" style="edgeStyle=orthogonalEdgeStyle;rounded=0;orthogonalLoop=1;jettySize=auto;html=1;exitX=0.5;exitY=0;exitDx=0;exitDy=0;exitPerimeter=0;" edge="1" parent="WIyWlLk6GJQsqaUBKTNV-1" source="nGMN8r1EgLCpATn-sk5n-183" target="nGMN8r1EgLCpATn-sk5n-184">
          <mxGeometry relative="1" as="geometry" />
        </mxCell>
        <mxCell id="nGMN8r1EgLCpATn-sk5n-183" value="Ingresar datos (Nueva contraseña, confirmar nueva contraseña)" style="strokeWidth=2;html=1;shape=mxgraph.flowchart.stored_data;whiteSpace=wrap;spacingLeft=0;spacingRight=5;spacing=10;" vertex="1" parent="WIyWlLk6GJQsqaUBKTNV-1">
          <mxGeometry x="543.75" y="835" width="180" height="70" as="geometry" />
        </mxCell>
        <mxCell id="nGMN8r1EgLCpATn-sk5n-184" value="&lt;br&gt;Database" style="strokeWidth=2;html=1;shape=mxgraph.flowchart.database;whiteSpace=wrap;" vertex="1" parent="WIyWlLk6GJQsqaUBKTNV-1">
          <mxGeometry x="603.75" y="740.5" width="60" height="60" as="geometry" />
        </mxCell>
        <mxCell id="nGMN8r1EgLCpATn-sk5n-194" value="No puedes inhabilitar usuarios" style="rounded=1;whiteSpace=wrap;html=1;absoluteArcSize=1;arcSize=14;strokeWidth=2;" vertex="1" parent="WIyWlLk6GJQsqaUBKTNV-1">
          <mxGeometry x="363.75" y="440" width="85" height="42" as="geometry" />
        </mxCell>
        <mxCell id="nGMN8r1EgLCpATn-sk5n-195" value="Inhabilitar instructor o coordinador" style="rounded=1;whiteSpace=wrap;html=1;absoluteArcSize=1;arcSize=14;strokeWidth=2;" vertex="1" parent="WIyWlLk6GJQsqaUBKTNV-1">
          <mxGeometry x="300.25" y="233" width="87" height="42" as="geometry" />
        </mxCell>
        <mxCell id="nGMN8r1EgLCpATn-sk5n-196" style="edgeStyle=orthogonalEdgeStyle;rounded=0;orthogonalLoop=1;jettySize=auto;html=1;exitX=0.75;exitY=1;exitDx=0;exitDy=0;" edge="1" parent="WIyWlLk6GJQsqaUBKTNV-1" source="nGMN8r1EgLCpATn-sk5n-199" target="nGMN8r1EgLCpATn-sk5n-202">
          <mxGeometry relative="1" as="geometry">
            <mxPoint x="291.2499999999999" y="271" as="targetPoint" />
            <Array as="points">
              <mxPoint x="380" y="305" />
            </Array>
          </mxGeometry>
        </mxCell>
        <mxCell id="nGMN8r1EgLCpATn-sk5n-197" style="edgeStyle=orthogonalEdgeStyle;rounded=0;orthogonalLoop=1;jettySize=auto;html=1;exitX=1;exitY=0.5;exitDx=0;exitDy=0;exitPerimeter=0;" edge="1" parent="WIyWlLk6GJQsqaUBKTNV-1" source="nGMN8r1EgLCpATn-sk5n-198" target="nGMN8r1EgLCpATn-sk5n-201">
          <mxGeometry relative="1" as="geometry">
            <Array as="points">
              <mxPoint x="356" y="390" />
            </Array>
          </mxGeometry>
        </mxCell>
        <mxCell id="nGMN8r1EgLCpATn-sk5n-198" value="¿Es administrador?" style="strokeWidth=2;html=1;shape=mxgraph.flowchart.decision;whiteSpace=wrap;" vertex="1" parent="WIyWlLk6GJQsqaUBKTNV-1">
          <mxGeometry x="226.25" y="300" width="130" height="70" as="geometry" />
        </mxCell>
        <mxCell id="SYWwScMQX4IT7AB_JwCY-2" style="edgeStyle=orthogonalEdgeStyle;rounded=0;orthogonalLoop=1;jettySize=auto;html=1;exitX=1;exitY=0.75;exitDx=0;exitDy=0;entryX=0.388;entryY=0.952;entryDx=0;entryDy=0;entryPerimeter=0;" edge="1" parent="WIyWlLk6GJQsqaUBKTNV-1" source="nGMN8r1EgLCpATn-sk5n-199" target="nGMN8r1EgLCpATn-sk5n-195">
          <mxGeometry relative="1" as="geometry" />
        </mxCell>
        <mxCell id="nGMN8r1EgLCpATn-sk5n-199" value="Si" style="text;html=1;strokeColor=none;fillColor=none;align=center;verticalAlign=middle;whiteSpace=wrap;rounded=0;" vertex="1" parent="WIyWlLk6GJQsqaUBKTNV-1">
          <mxGeometry x="267.75" y="285" width="30" height="20" as="geometry" />
        </mxCell>
        <mxCell id="SYWwScMQX4IT7AB_JwCY-1" style="edgeStyle=orthogonalEdgeStyle;rounded=0;orthogonalLoop=1;jettySize=auto;html=1;exitX=0.25;exitY=1;exitDx=0;exitDy=0;entryX=0;entryY=0.5;entryDx=0;entryDy=0;" edge="1" parent="WIyWlLk6GJQsqaUBKTNV-1" source="nGMN8r1EgLCpATn-sk5n-200" target="nGMN8r1EgLCpATn-sk5n-194">
          <mxGeometry relative="1" as="geometry" />
        </mxCell>
        <mxCell id="nGMN8r1EgLCpATn-sk5n-200" value="No" style="text;html=1;strokeColor=none;fillColor=none;align=center;verticalAlign=middle;whiteSpace=wrap;rounded=0;" vertex="1" parent="WIyWlLk6GJQsqaUBKTNV-1">
          <mxGeometry x="344.75" y="317" width="30" height="20" as="geometry" />
        </mxCell>
        <mxCell id="nGMN8r1EgLCpATn-sk5n-201" value="No puedes ver los usuarios y aprendices" style="rounded=1;whiteSpace=wrap;html=1;absoluteArcSize=1;arcSize=14;strokeWidth=2;" vertex="1" parent="WIyWlLk6GJQsqaUBKTNV-1">
          <mxGeometry x="370" y="379" width="85" height="42" as="geometry" />
        </mxCell>
        <mxCell id="nGMN8r1EgLCpATn-sk5n-202" value="Ver los instructores y aprendices" style="rounded=1;whiteSpace=wrap;html=1;absoluteArcSize=1;arcSize=14;strokeWidth=2;" vertex="1" parent="WIyWlLk6GJQsqaUBKTNV-1">
          <mxGeometry x="380" y="274" width="87" height="42" as="geometry" />
        </mxCell>
      </root>
    </mxGraphModel>
  </diagram>
  <diagram id="DRhhr17eYqjozt1iBglj" name="Aprendices">
    <mxGraphModel grid="1" page="1" gridSize="10" guides="1" tooltips="1" connect="1" arrows="1" fold="1" pageScale="1" pageWidth="827" pageHeight="1169" math="0" shadow="0">
      <root>
        <mxCell id="0" />
        <mxCell id="1" parent="0" />
        <mxCell id="eCnmF0qYx34CglwLJSSF-4" style="edgeStyle=orthogonalEdgeStyle;rounded=0;orthogonalLoop=1;jettySize=auto;html=1;exitX=0.5;exitY=1;exitDx=0;exitDy=0;entryX=0.5;entryY=0;entryDx=0;entryDy=0;" edge="1" parent="1" source="eCnmF0qYx34CglwLJSSF-1" target="eCnmF0qYx34CglwLJSSF-2">
          <mxGeometry relative="1" as="geometry" />
        </mxCell>
        <mxCell id="eCnmF0qYx34CglwLJSSF-1" value="Aprendices" style="ellipse;whiteSpace=wrap;html=1;" vertex="1" parent="1">
          <mxGeometry x="354" y="40" width="120" height="80" as="geometry" />
        </mxCell>
        <mxCell id="eCnmF0qYx34CglwLJSSF-8" style="edgeStyle=orthogonalEdgeStyle;rounded=0;orthogonalLoop=1;jettySize=auto;html=1;exitX=0;exitY=0.5;exitDx=0;exitDy=0;entryX=1;entryY=0.5;entryDx=0;entryDy=0;" edge="1" parent="1" source="eCnmF0qYx34CglwLJSSF-2" target="eCnmF0qYx34CglwLJSSF-7">
          <mxGeometry relative="1" as="geometry" />
        </mxCell>
        <mxCell id="eCnmF0qYx34CglwLJSSF-12" style="edgeStyle=orthogonalEdgeStyle;rounded=0;orthogonalLoop=1;jettySize=auto;html=1;exitX=1;exitY=0.5;exitDx=0;exitDy=0;entryX=0;entryY=0.5;entryDx=0;entryDy=0;" edge="1" parent="1" source="eCnmF0qYx34CglwLJSSF-2" target="eCnmF0qYx34CglwLJSSF-11">
          <mxGeometry relative="1" as="geometry" />
        </mxCell>
        <mxCell id="eCnmF0qYx34CglwLJSSF-2" value="¿Existen aprendices en la base de datos?" style="rhombus;whiteSpace=wrap;html=1;" vertex="1" parent="1">
          <mxGeometry x="311" y="170" width="206" height="80" as="geometry" />
        </mxCell>
        <mxCell id="eCnmF0qYx34CglwLJSSF-5" value="NO" style="text;html=1;align=center;verticalAlign=middle;resizable=0;points=[];autosize=1;strokeColor=none;fillColor=none;" vertex="1" parent="1">
          <mxGeometry x="300" y="178" width="40" height="30" as="geometry" />
        </mxCell>
        <mxCell id="eCnmF0qYx34CglwLJSSF-6" value="SI" style="text;html=1;align=center;verticalAlign=middle;resizable=0;points=[];autosize=1;strokeColor=none;fillColor=none;" vertex="1" parent="1">
          <mxGeometry x="495" y="178" width="30" height="30" as="geometry" />
        </mxCell>
        <mxCell id="eCnmF0qYx34CglwLJSSF-10" style="edgeStyle=orthogonalEdgeStyle;rounded=0;orthogonalLoop=1;jettySize=auto;html=1;exitX=0.5;exitY=1;exitDx=0;exitDy=0;" edge="1" parent="1" source="eCnmF0qYx34CglwLJSSF-7" target="eCnmF0qYx34CglwLJSSF-9">
          <mxGeometry relative="1" as="geometry">
            <Array as="points">
              <mxPoint x="160" y="340" />
            </Array>
          </mxGeometry>
        </mxCell>
        <mxCell id="eCnmF0qYx34CglwLJSSF-7" value="Subir archivo excel con los aprendices a registrar" style="rounded=1;whiteSpace=wrap;html=1;" vertex="1" parent="1">
          <mxGeometry x="100" y="180" width="120" height="60" as="geometry" />
        </mxCell>
        <mxCell id="Qc7ADsFEDhgQV9JC9imD-2" style="edgeStyle=orthogonalEdgeStyle;rounded=0;orthogonalLoop=1;jettySize=auto;html=1;exitX=1;exitY=0.5;exitDx=0;exitDy=0;exitPerimeter=0;entryX=0.5;entryY=0;entryDx=0;entryDy=0;entryPerimeter=0;" edge="1" parent="1" source="eCnmF0qYx34CglwLJSSF-9" target="Qc7ADsFEDhgQV9JC9imD-1">
          <mxGeometry relative="1" as="geometry">
            <Array as="points">
              <mxPoint x="400" y="350" />
              <mxPoint x="400" y="520" />
              <mxPoint x="404" y="520" />
            </Array>
          </mxGeometry>
        </mxCell>
        <mxCell id="eCnmF0qYx34CglwLJSSF-9" value="DataBase" style="shape=cylinder3;whiteSpace=wrap;html=1;boundedLbl=1;backgroundOutline=1;size=15;" vertex="1" parent="1">
          <mxGeometry x="370" y="310" width="60" height="80" as="geometry" />
        </mxCell>
        <mxCell id="Qc7ADsFEDhgQV9JC9imD-3" style="edgeStyle=orthogonalEdgeStyle;rounded=0;orthogonalLoop=1;jettySize=auto;html=1;exitX=0.5;exitY=1;exitDx=0;exitDy=0;entryX=1;entryY=0;entryDx=0;entryDy=52.5;entryPerimeter=0;" edge="1" parent="1" source="eCnmF0qYx34CglwLJSSF-11" target="eCnmF0qYx34CglwLJSSF-9">
          <mxGeometry relative="1" as="geometry" />
        </mxCell>
        <mxCell id="eCnmF0qYx34CglwLJSSF-11" value="Hacer una solicitud a comité de evaluación" style="rounded=1;whiteSpace=wrap;html=1;" vertex="1" parent="1">
          <mxGeometry x="590" y="180" width="120" height="60" as="geometry" />
        </mxCell>
        <mxCell id="Qc7ADsFEDhgQV9JC9imD-1" value="Fin" style="strokeWidth=2;html=1;shape=mxgraph.flowchart.terminator;whiteSpace=wrap;" vertex="1" parent="1">
          <mxGeometry x="354" y="460" width="100" height="60" as="geometry" />
        </mxCell>
      </root>
    </mxGraphModel>
  </diagram>
  <diagram id="fg9iNkICyp2EhAgzMYLq" name="Solicitud a comité">
    <mxGraphModel grid="1" page="1" gridSize="10" guides="1" tooltips="1" connect="1" arrows="1" fold="1" pageScale="1" pageWidth="827" pageHeight="1169" math="0" shadow="0">
      <root>
        <mxCell id="0" />
        <mxCell id="1" parent="0" />
        <mxCell id="QQS8dSRo7W8x-LzDg9iu-23" style="edgeStyle=orthogonalEdgeStyle;rounded=0;orthogonalLoop=1;jettySize=auto;html=1;entryX=0.5;entryY=0;entryDx=0;entryDy=0;" edge="1" parent="1" source="QQS8dSRo7W8x-LzDg9iu-25">
          <mxGeometry relative="1" as="geometry">
            <mxPoint x="-270" y="220" as="targetPoint" />
            <Array as="points">
              <mxPoint x="-270" y="200" />
            </Array>
          </mxGeometry>
        </mxCell>
        <mxCell id="QQS8dSRo7W8x-LzDg9iu-24" style="edgeStyle=orthogonalEdgeStyle;rounded=0;orthogonalLoop=1;jettySize=auto;html=1;entryX=0.5;entryY=0;entryDx=0;entryDy=0;" edge="1" parent="1" source="QQS8dSRo7W8x-LzDg9iu-25" target="QQS8dSRo7W8x-LzDg9iu-29">
          <mxGeometry relative="1" as="geometry">
            <mxPoint y="200" as="targetPoint" />
          </mxGeometry>
        </mxCell>
        <mxCell id="QQS8dSRo7W8x-LzDg9iu-25" value="&lt;div&gt;¿Tiene una solicitud que hacer?&lt;/div&gt;" style="strokeWidth=2;html=1;shape=mxgraph.flowchart.decision;whiteSpace=wrap;" vertex="1" parent="1">
          <mxGeometry x="-190" y="140" width="130" height="120" as="geometry" />
        </mxCell>
        <mxCell id="QQS8dSRo7W8x-LzDg9iu-26" value="&lt;div&gt;No&lt;/div&gt;" style="text;html=1;align=center;verticalAlign=middle;resizable=0;points=[];autosize=1;strokeColor=none;fillColor=none;" vertex="1" parent="1">
          <mxGeometry x="-215" y="160" width="40" height="30" as="geometry" />
        </mxCell>
        <mxCell id="QQS8dSRo7W8x-LzDg9iu-27" value="&lt;div&gt;Sí&lt;/div&gt;" style="text;html=1;align=center;verticalAlign=middle;resizable=0;points=[];autosize=1;strokeColor=none;fillColor=none;" vertex="1" parent="1">
          <mxGeometry x="-60" y="160" width="30" height="30" as="geometry" />
        </mxCell>
        <mxCell id="QQS8dSRo7W8x-LzDg9iu-28" style="edgeStyle=orthogonalEdgeStyle;rounded=0;orthogonalLoop=1;jettySize=auto;html=1;entryX=0.5;entryY=0;entryDx=0;entryDy=0;entryPerimeter=0;" edge="1" parent="1" source="QQS8dSRo7W8x-LzDg9iu-29">
          <mxGeometry relative="1" as="geometry">
            <mxPoint x="30" y="340" as="targetPoint" />
          </mxGeometry>
        </mxCell>
        <mxCell id="QQS8dSRo7W8x-LzDg9iu-29" value="Formulario de solicitud a comité con datos requeridos " style="rounded=1;whiteSpace=wrap;html=1;" vertex="1" parent="1">
          <mxGeometry x="-50" y="220" width="160" height="50" as="geometry" />
        </mxCell>
        <mxCell id="QQS8dSRo7W8x-LzDg9iu-34" style="edgeStyle=orthogonalEdgeStyle;rounded=0;orthogonalLoop=1;jettySize=auto;html=1;entryX=0.5;entryY=0;entryDx=0;entryDy=0;entryPerimeter=0;" edge="1" parent="1" source="QQS8dSRo7W8x-LzDg9iu-35" target="QQS8dSRo7W8x-LzDg9iu-25">
          <mxGeometry relative="1" as="geometry" />
        </mxCell>
        <mxCell id="QQS8dSRo7W8x-LzDg9iu-35" value="Inicio" style="strokeWidth=2;html=1;shape=mxgraph.flowchart.start_1;whiteSpace=wrap;" vertex="1" parent="1">
          <mxGeometry x="-175" y="40" width="100" height="60" as="geometry" />
        </mxCell>
        <mxCell id="QQS8dSRo7W8x-LzDg9iu-42" value="Fin" style="strokeWidth=2;html=1;shape=mxgraph.flowchart.terminator;whiteSpace=wrap;" vertex="1" parent="1">
          <mxGeometry x="-50" y="760" width="100" height="60" as="geometry" />
        </mxCell>
        <mxCell id="QQS8dSRo7W8x-LzDg9iu-43" value="Fin" style="strokeWidth=2;html=1;shape=mxgraph.flowchart.terminator;whiteSpace=wrap;" vertex="1" parent="1">
          <mxGeometry x="-320" y="220" width="100" height="60" as="geometry" />
        </mxCell>
        <mxCell id="QQS8dSRo7W8x-LzDg9iu-48" style="edgeStyle=orthogonalEdgeStyle;rounded=0;orthogonalLoop=1;jettySize=auto;html=1;exitX=0;exitY=0.5;exitDx=0;exitDy=0;entryX=1;entryY=0.5;entryDx=0;entryDy=0;" edge="1" parent="1" source="QQS8dSRo7W8x-LzDg9iu-46" target="QQS8dSRo7W8x-LzDg9iu-47">
          <mxGeometry relative="1" as="geometry" />
        </mxCell>
        <mxCell id="gFG01NwchuK0805kC98t-2" value="" style="edgeStyle=orthogonalEdgeStyle;rounded=0;orthogonalLoop=1;jettySize=auto;html=1;" edge="1" parent="1" source="QQS8dSRo7W8x-LzDg9iu-46" target="gFG01NwchuK0805kC98t-1">
          <mxGeometry relative="1" as="geometry" />
        </mxCell>
        <mxCell id="QQS8dSRo7W8x-LzDg9iu-46" value="¿su solicitud es grupal??" style="rhombus;whiteSpace=wrap;html=1;" vertex="1" parent="1">
          <mxGeometry x="-70" y="340" width="200" height="80" as="geometry" />
        </mxCell>
        <mxCell id="PYibW8CrzDd7Eyo1Z87H-2" value="" style="edgeStyle=orthogonalEdgeStyle;rounded=0;orthogonalLoop=1;jettySize=auto;html=1;" edge="1" parent="1" source="QQS8dSRo7W8x-LzDg9iu-47" target="PYibW8CrzDd7Eyo1Z87H-1">
          <mxGeometry relative="1" as="geometry" />
        </mxCell>
        <mxCell id="QQS8dSRo7W8x-LzDg9iu-47" value="ingresar datos del aprendiz" style="rounded=1;whiteSpace=wrap;html=1;" vertex="1" parent="1">
          <mxGeometry x="-300" y="350" width="120" height="60" as="geometry" />
        </mxCell>
        <mxCell id="QQS8dSRo7W8x-LzDg9iu-49" value="&lt;div&gt;No&lt;/div&gt;" style="text;html=1;align=center;verticalAlign=middle;resizable=0;points=[];autosize=1;strokeColor=none;fillColor=none;" vertex="1" parent="1">
          <mxGeometry x="-100" y="340" width="40" height="30" as="geometry" />
        </mxCell>
        <mxCell id="QQS8dSRo7W8x-LzDg9iu-50" value="&lt;div&gt;Sí&lt;/div&gt;" style="text;html=1;align=center;verticalAlign=middle;resizable=0;points=[];autosize=1;strokeColor=none;fillColor=none;" vertex="1" parent="1">
          <mxGeometry x="120" y="340" width="30" height="30" as="geometry" />
        </mxCell>
        <mxCell id="gFG01NwchuK0805kC98t-10" style="edgeStyle=orthogonalEdgeStyle;rounded=0;orthogonalLoop=1;jettySize=auto;html=1;exitX=0.93;exitY=0.5;exitDx=0;exitDy=0;exitPerimeter=0;" edge="1" parent="1" source="QQS8dSRo7W8x-LzDg9iu-51" target="gFG01NwchuK0805kC98t-11">
          <mxGeometry relative="1" as="geometry">
            <mxPoint x="-267.5000000000002" y="870" as="targetPoint" />
          </mxGeometry>
        </mxCell>
        <mxCell id="QQS8dSRo7W8x-LzDg9iu-51" value="&lt;div&gt;Datos ingresados:&lt;/div&gt;&lt;br&gt;- Nombre/s del aprendiz&lt;br&gt;&lt;div&gt;- Apellido/s del aprendiz&lt;/div&gt;&lt;div&gt;-tipo de documento del aprendiz&lt;br&gt;&lt;/div&gt;- No. de documento de identidad&lt;br&gt;&lt;div&gt;- Correo electrónico institucional del aprendiz&lt;/div&gt;&lt;div&gt;-Correo electrónico personal del aprendiz&lt;br&gt;&lt;/div&gt;- Número de celular del aprendiz&lt;br&gt;- Número de teléfono fijo del aprendiz&lt;br&gt;- Etapa de formación&lt;br&gt;- Nivel del programa de formación&lt;br&gt;- Número de ficha&lt;br&gt;- Nombre del programa de formación&lt;br&gt;&lt;div&gt;- Nombre completo del coordinado destinado&amp;nbsp;&lt;/div&gt;&lt;div&gt;a la ficha del aprendiz&lt;/div&gt;- articulos faltados del reglamento al aprendiz &lt;br&gt;- Pruebas anexadas segun la falta&lt;br&gt;" style="strokeWidth=2;html=1;shape=mxgraph.flowchart.stored_data;whiteSpace=wrap;" vertex="1" parent="1">
          <mxGeometry x="-690" y="585" width="385" height="310" as="geometry" />
        </mxCell>
        <mxCell id="gFG01NwchuK0805kC98t-4" value="" style="edgeStyle=orthogonalEdgeStyle;rounded=0;orthogonalLoop=1;jettySize=auto;html=1;" edge="1" parent="1" source="gFG01NwchuK0805kC98t-1" target="gFG01NwchuK0805kC98t-3">
          <mxGeometry relative="1" as="geometry">
            <Array as="points">
              <mxPoint x="280" y="520" />
              <mxPoint x="280" y="520" />
            </Array>
          </mxGeometry>
        </mxCell>
        <mxCell id="gFG01NwchuK0805kC98t-1" value="Seleccionar aprendices involucrados" style="whiteSpace=wrap;html=1;" vertex="1" parent="1">
          <mxGeometry x="220" y="350" width="120" height="60" as="geometry" />
        </mxCell>
        <mxCell id="gFG01NwchuK0805kC98t-13" style="edgeStyle=orthogonalEdgeStyle;rounded=0;orthogonalLoop=1;jettySize=auto;html=1;exitX=0.5;exitY=1;exitDx=0;exitDy=0;" edge="1" parent="1" source="gFG01NwchuK0805kC98t-3" target="gFG01NwchuK0805kC98t-11">
          <mxGeometry relative="1" as="geometry" />
        </mxCell>
        <mxCell id="PYibW8CrzDd7Eyo1Z87H-10" style="edgeStyle=orthogonalEdgeStyle;rounded=0;orthogonalLoop=1;jettySize=auto;html=1;exitX=0;exitY=0.5;exitDx=0;exitDy=0;entryX=0;entryY=0.5;entryDx=0;entryDy=0;" edge="1" parent="1" source="gFG01NwchuK0805kC98t-3" target="gFG01NwchuK0805kC98t-1">
          <mxGeometry relative="1" as="geometry" />
        </mxCell>
        <mxCell id="gFG01NwchuK0805kC98t-3" value="¿Selecciono más de dos aprendices?" style="rhombus;whiteSpace=wrap;html=1;" vertex="1" parent="1">
          <mxGeometry x="170" y="545" width="150" height="80" as="geometry" />
        </mxCell>
        <mxCell id="gFG01NwchuK0805kC98t-5" value="NO" style="text;html=1;align=center;verticalAlign=middle;resizable=0;points=[];autosize=1;strokeColor=none;fillColor=none;" vertex="1" parent="1">
          <mxGeometry x="180" y="540" width="40" height="30" as="geometry" />
        </mxCell>
        <mxCell id="gFG01NwchuK0805kC98t-8" value="SI" style="text;html=1;align=center;verticalAlign=middle;resizable=0;points=[];autosize=1;strokeColor=none;fillColor=none;" vertex="1" parent="1">
          <mxGeometry x="200" y="610" width="30" height="30" as="geometry" />
        </mxCell>
        <mxCell id="gFG01NwchuK0805kC98t-12" style="edgeStyle=orthogonalEdgeStyle;rounded=0;orthogonalLoop=1;jettySize=auto;html=1;exitX=0.5;exitY=1;exitDx=0;exitDy=0;exitPerimeter=0;entryX=0.5;entryY=0;entryDx=0;entryDy=0;entryPerimeter=0;" edge="1" parent="1" source="gFG01NwchuK0805kC98t-11" target="QQS8dSRo7W8x-LzDg9iu-42">
          <mxGeometry relative="1" as="geometry" />
        </mxCell>
        <mxCell id="gFG01NwchuK0805kC98t-11" value="&lt;div&gt;DataBase&lt;/div&gt;&lt;div&gt;&lt;br&gt;&lt;/div&gt;" style="shape=cylinder3;whiteSpace=wrap;html=1;boundedLbl=1;backgroundOutline=1;size=15;" vertex="1" parent="1">
          <mxGeometry x="-30.000000000000227" y="570" width="60" height="80" as="geometry" />
        </mxCell>
        <mxCell id="PYibW8CrzDd7Eyo1Z87H-4" style="edgeStyle=orthogonalEdgeStyle;rounded=0;orthogonalLoop=1;jettySize=auto;html=1;exitX=0;exitY=1;exitDx=0;exitDy=0;entryX=0.1;entryY=0;entryDx=0;entryDy=0;entryPerimeter=0;" edge="1" parent="1" source="PYibW8CrzDd7Eyo1Z87H-1" target="QQS8dSRo7W8x-LzDg9iu-51">
          <mxGeometry relative="1" as="geometry">
            <mxPoint x="-680" y="560" as="targetPoint" />
          </mxGeometry>
        </mxCell>
        <mxCell id="PYibW8CrzDd7Eyo1Z87H-5" style="edgeStyle=orthogonalEdgeStyle;rounded=0;orthogonalLoop=1;jettySize=auto;html=1;exitX=1;exitY=0.5;exitDx=0;exitDy=0;" edge="1" parent="1" source="PYibW8CrzDd7Eyo1Z87H-1" target="PYibW8CrzDd7Eyo1Z87H-7">
          <mxGeometry relative="1" as="geometry">
            <mxPoint x="-210" y="530" as="targetPoint" />
          </mxGeometry>
        </mxCell>
        <mxCell id="PYibW8CrzDd7Eyo1Z87H-1" value="¿Desea agregar manualmente el aprendiz?" style="rhombus;whiteSpace=wrap;html=1;rounded=1;" vertex="1" parent="1">
          <mxGeometry x="-560" y="420" width="170" height="80" as="geometry" />
        </mxCell>
        <mxCell id="PYibW8CrzDd7Eyo1Z87H-3" value="SI" style="text;html=1;align=center;verticalAlign=middle;resizable=0;points=[];autosize=1;strokeColor=none;fillColor=none;" vertex="1" parent="1">
          <mxGeometry x="-555" y="468" width="30" height="30" as="geometry" />
        </mxCell>
        <mxCell id="PYibW8CrzDd7Eyo1Z87H-6" value="NO" style="text;html=1;align=center;verticalAlign=middle;resizable=0;points=[];autosize=1;strokeColor=none;fillColor=none;" vertex="1" parent="1">
          <mxGeometry x="-413" y="428" width="40" height="30" as="geometry" />
        </mxCell>
        <mxCell id="PYibW8CrzDd7Eyo1Z87H-8" style="edgeStyle=orthogonalEdgeStyle;rounded=0;orthogonalLoop=1;jettySize=auto;html=1;exitX=1;exitY=1;exitDx=0;exitDy=0;entryX=0;entryY=0;entryDx=0;entryDy=15;entryPerimeter=0;" edge="1" parent="1" source="PYibW8CrzDd7Eyo1Z87H-7" target="gFG01NwchuK0805kC98t-11">
          <mxGeometry relative="1" as="geometry" />
        </mxCell>
        <mxCell id="PYibW8CrzDd7Eyo1Z87H-7" value="Seleccionar aprendiz" style="rounded=1;whiteSpace=wrap;html=1;" vertex="1" parent="1">
          <mxGeometry x="-270" y="500" width="120" height="60" as="geometry" />
        </mxCell>
      </root>
    </mxGraphModel>
  </diagram>
</mxfile>
